<?xml version="1.0" encoding="iso-8859-1"?>
<!-- Generator: Adobe Illustrator 19.0.0, SVG Export Plug-In . SVG Version: 6.00 Build 0)  -->
<svg version="1.1" id="Layer_1" xmlns="http://www.w3.org/2000/svg" xmlns:xlink="http://www.w3.org/1999/xlink" x="0px" y="0px"
	 viewBox="0 0 460.826 460.826" style="enable-background:new 0 0 460.826 460.826;" xml:space="preserve">
<g id="XMLID_380_">
	<g>
		<g>
			<path d="M230.414,264.985c-36.117,0-65.5,29.383-65.5,65.5s29.383,65.5,65.5,65.5s65.5-29.383,65.5-65.5
				S266.531,264.985,230.414,264.985z M230.414,378.985c-26.743,0-48.5-21.757-48.5-48.5c0-26.743,21.757-48.5,48.5-48.5
				c26.743,0,48.5,21.757,48.5,48.5C278.914,357.229,257.156,378.985,230.414,378.985z"/>
			<path d="M230.414,158.841c15.715,0,28.5-12.785,28.5-28.5c0-15.715-12.785-28.5-28.5-28.5c-15.715,0-28.5,12.785-28.5,28.5
				C201.914,146.056,214.699,158.841,230.414,158.841z"/>
			<path d="M230.414,301.985c-15.715,0-28.5,12.785-28.5,28.5c0,15.715,12.785,28.5,28.5,28.5c15.715,0,28.5-12.785,28.5-28.5
				C258.914,314.771,246.128,301.985,230.414,301.985z"/>
			<path d="M230.414,195.841c36.117,0,65.5-29.383,65.5-65.5s-29.383-65.5-65.5-65.5s-65.5,29.383-65.5,65.5
				S194.297,195.841,230.414,195.841z M230.414,81.841c26.743,0,48.5,21.757,48.5,48.5s-21.757,48.5-48.5,48.5
				c-26.743,0-48.5-21.757-48.5-48.5S203.67,81.841,230.414,81.841z"/>
			<path d="M343.869,0h-226.91c-27.87,0-50.545,22.675-50.545,50.546v359.735c0,27.871,22.675,50.545,50.545,50.545h226.909
				c27.871,0,50.545-22.675,50.545-50.545V50.546C394.414,22.675,371.739,0,343.869,0z M230.414,44.841
				c47.145,0,85.5,38.355,85.5,85.5c0,47.145-38.355,85.5-85.5,85.5s-85.5-38.355-85.5-85.5S183.269,44.841,230.414,44.841z
				 M126.206,420.413c-10.217,0-18.5-8.283-18.5-18.5c0-10.217,8.283-18.5,18.5-18.5c10.217,0,18.5,8.283,18.5,18.5
				C144.706,412.13,136.423,420.413,126.206,420.413z M126.206,77.413c-10.217,0-18.5-8.283-18.5-18.5
				c0-10.217,8.283-18.5,18.5-18.5c10.217,0,18.5,8.283,18.5,18.5C144.706,69.13,136.423,77.413,126.206,77.413z M230.414,415.985
				c-47.145,0-85.5-38.355-85.5-85.5c0-47.145,38.355-85.5,85.5-85.5c47.145,0,85.5,38.355,85.5,85.5
				C315.914,377.63,277.558,415.985,230.414,415.985z M331.76,420.413c-10.218,0-18.5-8.283-18.5-18.5
				c0-10.217,8.283-18.5,18.5-18.5c10.217,0,18.5,8.283,18.5,18.5C350.26,412.13,341.978,420.413,331.76,420.413z M331.76,77.413
				c-10.217,0-18.5-8.283-18.5-18.5c0-10.217,8.283-18.5,18.5-18.5c10.217,0,18.5,8.283,18.5,18.5
				C350.26,69.13,341.977,77.413,331.76,77.413z"/>
		</g>
	</g>
</g>
<g>
</g>
<g>
</g>
<g>
</g>
<g>
</g>
<g>
</g>
<g>
</g>
<g>
</g>
<g>
</g>
<g>
</g>
<g>
</g>
<g>
</g>
<g>
</g>
<g>
</g>
<g>
</g>
<g>
</g>
</svg>
